<?xml version="1.0" standalone="no"?>
<!DOCTYPE svg PUBLIC "-//W3C//DTD SVG 20010904//EN"
 "http://www.w3.org/TR/2001/REC-SVG-20010904/DTD/svg10.dtd">
<svg version="1.0" xmlns="http://www.w3.org/2000/svg"
 width="3523.000000pt" height="1110.000000pt" viewBox="0 0 3523.000000 1110.000000"
 preserveAspectRatio="xMidYMid meet">

<g transform="translate(0.000000,1110.000000) scale(0.100000,-0.100000)"
fill="#000000" stroke="none">
<path d="M27670 5736 c-440 -64 -814 -314 -1041 -697 -96 -161 -173 -395 -184
-562 -6 -81 -6 -82 10 -47 62 136 241 200 373 134 57 -28 116 -90 134 -141 7
-18 15 -33 19 -33 3 0 9 25 13 55 10 87 61 232 111 318 54 91 164 211 252 273
75 54 206 116 293 139 90 23 262 31 356 16 94 -16 195 -50 279 -94 46 -24 65
-31 65 -21 0 8 -1 16 -2 17 -2 2 4 12 12 21 8 10 16 28 17 39 2 12 8 24 13 25
6 2 10 10 10 17 0 7 6 26 14 42 24 49 77 204 76 226 0 5 9 21 19 36 11 15 23
39 26 52 6 24 1 28 -82 66 -108 50 -227 88 -341 109 -121 22 -326 26 -442 10z"/>
</g>
</svg>
